<svg width="74" height="60" viewBox="0 0 74 60" fill="none" xmlns="http://www.w3.org/2000/svg">
<g filter="url(#filter0_dd_112_4216)">
<g clip-path="url(#clip0_112_4216)">
<rect x="7" y="3" width="60" height="45" rx="6" fill="#1A47B8"/>
<path fill-rule="evenodd" clip-rule="evenodd" d="M13.3828 3H7V10.5L60.5826 48L67 48V40.5L13.3828 3Z" fill="white"/>
<path d="M9.12885 3L67 43.6063V48L64.9211 48L7 7.35168V3H9.12885Z" fill="#F93939"/>
<path fill-rule="evenodd" clip-rule="evenodd" d="M61.2857 3H67V10.5C67 10.5 29.8852 35.4842 12.7143 48H7V40.5L61.2857 3Z" fill="white"/>
<path d="M67 3H65.0622L7 43.6413V48H9.12885L67 7.38454V3Z" fill="#F93939"/>
<path fill-rule="evenodd" clip-rule="evenodd" d="M28.8202 3H45.2297V16.8805H67V34.1104H45.2297V48H28.8202V34.1104H7V16.8805H28.8202V3Z" fill="white"/>
<path fill-rule="evenodd" clip-rule="evenodd" d="M32.2632 3H41.7368V20.3077H67V30.6923H41.7368V48H32.2632V30.6923H7V20.3077H32.2632V3Z" fill="#F93939"/>
</g>
</g>
<defs>
<filter id="filter0_dd_112_4216" x="0.142857" y="0.714285" width="73.7143" height="58.7143" filterUnits="userSpaceOnUse" color-interpolation-filters="sRGB">
<feFlood flood-opacity="0" result="BackgroundImageFix"/>
<feColorMatrix in="SourceAlpha" type="matrix" values="0 0 0 0 0 0 0 0 0 0 0 0 0 0 0 0 0 0 127 0" result="hardAlpha"/>
<feOffset dy="4.57143"/>
<feGaussianBlur stdDeviation="3.42857"/>
<feComposite in2="hardAlpha" operator="out"/>
<feColorMatrix type="matrix" values="0 0 0 0 0.258824 0 0 0 0 0.278431 0 0 0 0 0.298039 0 0 0 0.08 0"/>
<feBlend mode="normal" in2="BackgroundImageFix" result="effect1_dropShadow_112_4216"/>
<feColorMatrix in="SourceAlpha" type="matrix" values="0 0 0 0 0 0 0 0 0 0 0 0 0 0 0 0 0 0 127 0" result="hardAlpha"/>
<feOffset/>
<feGaussianBlur stdDeviation="0.285714"/>
<feComposite in2="hardAlpha" operator="out"/>
<feColorMatrix type="matrix" values="0 0 0 0 0.258824 0 0 0 0 0.278431 0 0 0 0 0.298039 0 0 0 0.32 0"/>
<feBlend mode="normal" in2="effect1_dropShadow_112_4216" result="effect2_dropShadow_112_4216"/>
<feBlend mode="normal" in="SourceGraphic" in2="effect2_dropShadow_112_4216" result="shape"/>
</filter>
<clipPath id="clip0_112_4216">
<rect x="7" y="3" width="60" height="45" rx="6" fill="white"/>
</clipPath>
</defs>
</svg>
