<svg width="320" height="150" viewBox="0 0 320 150" fill="none" xmlns="http://www.w3.org/2000/svg">
<path d="M0.0581055 11.9998C0.0581055 5.37234 5.43069 -0.000244141 12.0581 -0.000244141H307.058C313.686 -0.000244141 319.058 5.37234 319.058 11.9998V150H12.0581C5.43069 150 0.0581055 144.627 0.0581055 138V11.9998Z" fill="#8E97FD"/>
<path opacity="0.22" d="M269.898 10C269.669 10 269.456 10.0062 269.243 10.0062C268.954 10.0062 268.649 10 268.36 10C248.88 10.0373 231.974 15.054 224.892 22.0437C222.272 24.5023 220.795 27.2098 220.795 30.0605C220.795 36.851 229.065 42.8573 241.706 46.486C232.324 47.818 225.577 51.4467 225.577 55.7351C225.577 58.7538 228.913 61.4489 234.167 63.2477C222.288 63.6336 212.921 67.6855 212.921 72.6399C212.921 73.5175 213.241 74.364 213.789 75.1732C211.961 75.0176 210.058 74.9366 208.123 74.9366C194.111 74.9366 182.552 79.1628 180.572 84.665C178.424 84.4285 176.17 84.2916 173.84 84.2916C167.474 84.2916 161.656 85.2376 157.163 86.7937C150.735 82.667 139.465 79.916 126.595 79.916C122.635 79.916 118.828 80.1836 115.264 80.6629C116.528 79.1317 116.909 77.445 116.01 75.6649C114.411 72.4968 108.776 69.8951 101.435 68.6876C96.8961 67.9407 92.5554 67.8784 88.5651 68.1959C89.7073 67.2 90.3775 66.0921 90.3775 64.922C90.3775 60.9572 83.0517 57.6957 73.6241 57.2663C75.071 55.6853 75.8934 53.9799 75.8934 52.1936C75.8934 44.4134 60.9067 38.0834 42.0972 37.71C46.2399 35.9236 48.7986 33.5149 48.7986 30.8634C48.7986 25.355 37.8784 20.8923 24.3995 20.8923C10.9207 20.8923 0.000488281 25.355 0.000488281 30.8634V150H319V30.0667C318.985 18.9877 297.008 10 269.898 10Z" fill="url(#paint0_linear_130_4259)"/>
<path d="M232.882 68.9617L218.215 78.5442L180.746 54.8944C174.712 51.0826 167.662 52.3154 162.481 58.086L160.099 60.7407L90 149.819H319.058L250.504 71.4122C249.191 69.9071 247.7 68.75 246.096 67.9785C241.763 65.8987 237.031 66.2542 232.882 68.9617Z" fill="#A5C0EA"/>
<path d="M246.09 67.979C241.763 65.8992 237.031 66.2546 232.882 68.9622L218.215 78.5446L180.745 54.8949C177.753 53.0041 174.511 52.3612 171.373 52.8906L183.403 75.8749L179.562 81.4564L212.154 124.037L243.27 95.1759L235.907 87.6203L247.473 68.6446L246.09 67.979Z" fill="#92B3EA"/>
<path d="M232.882 68.9617L218.215 78.5442L180.746 54.8944C174.712 51.0826 167.662 52.3154 162.481 58.086L160.099 60.7407L90 149.819H319.058L250.504 71.4122C249.191 69.9071 247.7 68.75 246.096 67.9785C241.763 65.8987 237.031 66.2542 232.882 68.9617Z" fill="url(#paint1_linear_130_4259)"/>
<path d="M212.641 107.314L179.069 90.7739C170.958 86.773 162.048 86.5688 153.827 90.184C149.895 91.9159 146.198 94.4873 142.897 97.8L91 149.819H291.29L256.891 123.061C247.012 115.377 235.84 111.035 224.376 110.43C220.369 110.219 216.407 109.167 212.641 107.314Z" fill="white"/>
<path d="M224.381 110.43C220.368 110.219 216.407 109.167 212.641 107.314L179.069 90.7739C175.825 89.1781 172.455 88.1949 169.057 87.8091L165.251 99.6681C163.948 103.722 164.516 108.396 166.703 111.716L191.808 149.811H291.295L256.897 123.053C247.017 115.377 235.845 111.035 224.381 110.43Z" fill="#CEE0FF"/>
<path d="M212.641 107.314L179.069 90.7739C170.958 86.773 162.048 86.5688 153.827 90.184C149.895 91.9159 146.198 94.4873 142.897 97.8L91 149.819H291.29L256.891 123.061C247.012 115.377 235.84 111.035 224.376 110.43C220.369 110.219 216.407 109.167 212.641 107.314Z" fill="url(#paint2_linear_130_4259)"/>
<path d="M128.303 150L141.016 111.345L156.678 150H128.303Z" fill="#2F497C"/>
<path d="M146.826 150L160.182 104.425L175.206 150H146.826Z" fill="#2F497C"/>
<path d="M150.917 106.731L144.021 123.355H147.469L136.624 150H163.986L156.59 128.369L161.275 130.094L150.917 106.731Z" fill="#627BB3"/>
<path d="M133.763 106.731L126.86 123.355H130.315L119.47 150H146.826L139.436 128.369L144.115 130.094L133.763 106.731Z" fill="#496AAA"/>
<path d="M180.641 114.227L174.931 127.976H177.786L168.822 150H191.442L185.326 132.113L189.2 133.543L180.641 114.227Z" fill="#2F79AA"/>
<path d="M168.497 114.227L162.793 127.976H165.642L156.677 150H179.298L173.182 132.113L177.055 133.543L168.497 114.227Z" fill="#496AAA"/>
<path d="M217.949 133.158L227.101 105.348L238.364 133.158H217.949Z" fill="#2F497C"/>
<path d="M231.28 133.158L240.888 100.372L251.696 133.158H231.28Z" fill="#2F497C"/>
<path d="M234.223 102.028L229.256 113.993H231.743L223.94 133.157H243.625L238.302 117.593L241.669 118.84L234.223 102.028Z" fill="#627BB3"/>
<path d="M221.878 102.028L216.912 113.993H219.398L211.595 133.157H231.28L225.957 117.593L229.331 118.84L221.878 102.028Z" fill="#496AAA"/>
<path d="M255.606 107.42L251.502 117.313H253.551L247.104 133.158H263.377L258.98 120.293L261.759 121.321L255.606 107.42Z" fill="#2F79AA"/>
<path d="M246.866 107.42L242.762 117.313H244.817L238.364 133.158H254.637L250.239 120.293L253.026 121.321L246.866 107.42Z" fill="#496AAA"/>
<defs>
<linearGradient id="paint0_linear_130_4259" x1="155.808" y1="-19.0211" x2="156.624" y2="125.507" gradientUnits="userSpaceOnUse">
<stop stop-color="white"/>
<stop offset="1" stop-color="white" stop-opacity="0"/>
</linearGradient>
<linearGradient id="paint1_linear_130_4259" x1="204.529" y1="35.6807" x2="205.45" y2="101.648" gradientUnits="userSpaceOnUse">
<stop stop-color="#5B5FB3" stop-opacity="0.53"/>
<stop offset="0.9596" stop-color="#7E5AFF" stop-opacity="0"/>
</linearGradient>
<linearGradient id="paint2_linear_130_4259" x1="188.64" y1="149.819" x2="192.98" y2="84.2806" gradientUnits="userSpaceOnUse">
<stop offset="0.4372" stop-color="#4198F4" stop-opacity="0.53"/>
<stop offset="0.9596" stop-color="#4AA2FF" stop-opacity="0"/>
</linearGradient>
</defs>
</svg>
