<svg width="319" height="150" viewBox="0 0 319 150" fill="none" xmlns="http://www.w3.org/2000/svg">
<path d="M0 12C0 5.37258 5.37258 0 12 0H306.071C312.698 0 318.071 5.37258 318.071 12V150H12C5.37258 150 0 144.627 0 138V12Z" fill="#56DA89"/>
<path d="M247.957 45.7267C248.724 40.8373 245.515 36.2303 240.791 35.4368C236.067 34.6433 231.615 37.9637 230.849 42.8531C230.082 47.7425 233.29 52.3495 238.014 53.143C242.739 53.9365 247.19 50.6161 247.957 45.7267Z" fill="#FBAD82"/>
<path d="M166.848 48.8084C167.212 48.7726 167.575 48.7726 167.927 48.8025C168.302 45.8945 170.558 43.5179 173.501 43.2074C176.114 42.9328 178.509 44.3659 179.669 46.6289C179.819 46.6051 179.974 46.5812 180.13 46.5633C183.851 46.1751 187.169 48.9816 187.544 52.8271C187.89 56.3919 185.594 59.5984 182.299 60.3628L182.294 60.4165H182.046C181.861 60.4523 181.676 60.4822 181.492 60.5001C180.84 60.5658 167.985 60.4344 167.985 60.4344C164.881 60.7569 162.112 58.4161 161.8 55.2096C161.483 52.003 163.744 49.1309 166.848 48.8084Z" fill="url(#paint0_linear_130_2990)"/>
<path d="M242.543 63.1366C241.51 60.7362 239.912 58.6403 237.898 57.04C235.469 57.1654 233.346 58.8075 232.55 61.2079L225.973 81.1219C225.211 83.4328 222.193 83.791 220.941 81.719C219.539 79.3962 217.053 78.0169 214.41 78.1005C211.67 78.1841 209.2 79.8262 207.977 82.3639L202.808 95.0767L190.472 82.3102C188.337 80.1008 185.441 78.8588 182.424 78.8588C180.716 78.8588 179.083 79.5634 177.871 80.8114C175.356 83.4149 171.282 83.4149 168.773 80.8114L162.634 74.458C160.759 72.5174 158.209 71.4247 155.555 71.4247C152.214 71.4247 149.098 73.1444 147.241 76.0165L108.117 133.406L272.21 130.582L242.543 63.1366Z" fill="#F6E6A4"/>
<path d="M170.896 90.0787C170.797 90.0787 170.699 90.0787 170.601 90.0787C157.164 90.1444 144.298 95.7095 134.605 105.335L89.6133 149.994H233.934C231.205 116.436 204.025 90.0787 170.896 90.0787Z" fill="#ADB010"/>
<path d="M170.896 90.0787C170.797 90.0787 170.699 90.0787 170.601 90.0787C157.164 90.1444 144.298 95.7095 134.605 105.335L89.6133 149.994H233.934C231.205 116.436 204.025 90.0787 170.896 90.0787Z" fill="url(#paint1_linear_130_2990)"/>
<path d="M198.031 61.5593C198.85 60.1501 199.167 58.514 199.04 56.8719C199.023 56.645 199.012 56.4121 199.012 56.1792C199.012 51.7605 202.121 48.1778 205.958 48.1778C209.795 48.1778 212.905 51.7605 212.905 56.1792C212.905 56.4121 212.893 56.645 212.876 56.8719C212.749 58.514 213.066 60.1441 213.886 61.5593C214.895 63.3029 215.484 65.3928 215.484 67.644C215.484 73.7048 211.214 78.6191 205.952 78.6191C200.685 78.6191 196.421 73.7048 196.421 67.644C196.433 65.3928 197.021 63.3029 198.031 61.5593Z" fill="#CACB68"/>
<path d="M198.031 61.5593C198.85 60.1501 199.167 58.514 199.04 56.8719C199.023 56.645 199.012 56.4121 199.012 56.1792C199.012 51.7605 202.121 48.1778 205.958 48.1778C209.795 48.1778 212.905 51.7605 212.905 56.1792C212.905 56.4121 212.893 56.645 212.876 56.8719C212.749 58.514 213.066 60.1441 213.886 61.5593C214.895 63.3029 215.484 65.3928 215.484 67.644C215.484 73.7048 211.214 78.6191 205.952 78.6191C200.685 78.6191 196.421 73.7048 196.421 67.644C196.433 65.3928 197.021 63.3029 198.031 61.5593Z" fill="url(#paint2_linear_130_2990)"/>
<path d="M210.308 66.9812C210.239 66.9394 210.164 66.9155 210.083 66.9155C209.933 66.9155 209.795 66.9932 209.714 67.1305L207.123 71.5313L206.391 72.7733V71.3163V55.5224C206.391 55.2776 206.2 55.0806 205.964 55.0806C205.727 55.0806 205.537 55.2776 205.537 55.5224V61.2309V62.6879L204.804 61.4459L204.008 60.0904C203.927 59.9591 203.794 59.8755 203.639 59.8755C203.558 59.8755 203.483 59.8993 203.414 59.9411C203.212 60.0665 203.148 60.3412 203.269 60.5502L205.444 64.2464L205.468 64.2822L205.531 64.3837V64.5032V71.1969V72.6539L204.798 71.4119L202.277 67.1245C202.196 66.9932 202.063 66.9096 201.908 66.9096C201.827 66.9096 201.752 66.9334 201.683 66.9752C201.481 67.1006 201.417 67.3753 201.538 67.5843L205.335 74.0273C205.352 74.0571 205.375 74.0929 205.404 74.1168L205.525 74.2362V74.4094V94.6698H206.385V74.4751V74.2721L206.541 74.1467C206.593 74.1049 206.627 74.0691 206.65 74.0332L210.447 67.5903C210.574 67.3813 210.51 67.1066 210.308 66.9812Z" fill="#4B766F"/>
<path d="M188.262 86.5859C188.51 86.156 188.608 85.6544 188.573 85.1528C188.568 85.0812 188.568 85.0155 188.568 84.9438C188.568 83.5943 189.52 82.5016 190.691 82.5016C191.862 82.5016 192.814 83.5943 192.814 84.9438C192.814 85.0155 192.814 85.0871 192.808 85.1528C192.768 85.6544 192.866 86.15 193.12 86.5859C193.431 87.1173 193.61 87.7563 193.61 88.443C193.61 90.294 192.306 91.7928 190.697 91.7928C189.087 91.7928 187.783 90.294 187.783 88.443C187.771 87.7563 187.95 87.1173 188.262 86.5859Z" fill="#CACB68"/>
<path d="M192.013 88.2401C191.99 88.2282 191.967 88.2222 191.944 88.2222C191.897 88.2222 191.857 88.2461 191.834 88.2879L191.043 89.6314L190.818 90.0136V89.5717V84.747C190.818 84.6693 190.761 84.6096 190.686 84.6096C190.611 84.6096 190.553 84.6693 190.553 84.747V86.4906V86.9324L190.328 86.5503L190.086 86.1383C190.063 86.0965 190.022 86.0726 189.976 86.0726C189.953 86.0726 189.93 86.0785 189.907 86.0905C189.843 86.1323 189.826 86.2159 189.861 86.2756L190.524 87.4042L190.53 87.4161L190.547 87.4459V87.4818V89.5239V89.9658L190.322 89.5836L189.549 88.2759C189.526 88.2342 189.486 88.2103 189.44 88.2103C189.416 88.2103 189.393 88.2162 189.37 88.2282C189.307 88.27 189.29 88.3536 189.324 88.4133L190.484 90.3838C190.49 90.3957 190.495 90.4017 190.507 90.4136L190.542 90.4495V90.5032V96.6894H190.801V90.5211V90.4614L190.847 90.4256C190.865 90.4136 190.876 90.4017 190.882 90.3898L192.042 88.4193C192.094 88.3655 192.07 88.2819 192.013 88.2401Z" fill="#4B766F"/>
<path d="M141.845 91.7866C142.474 90.7058 142.717 89.4578 142.618 88.2039C142.607 88.0307 142.601 87.8516 142.601 87.6724C142.601 84.2927 144.978 81.5519 147.915 81.5519C150.852 81.5519 153.229 84.2927 153.229 87.6724C153.229 87.8516 153.223 88.0247 153.211 88.2039C153.113 89.4578 153.356 90.7058 153.985 91.7866C154.758 93.1182 155.208 94.7185 155.208 96.4442C155.208 101.078 151.942 104.84 147.915 104.84C143.888 104.84 140.622 101.084 140.622 96.4442C140.622 94.7245 141.072 93.1242 141.845 91.7866Z" fill="#CACB68"/>
<path d="M141.845 91.7866C142.474 90.7058 142.717 89.4578 142.618 88.2039C142.607 88.0307 142.601 87.8516 142.601 87.6724C142.601 84.2927 144.978 81.5519 147.915 81.5519C150.852 81.5519 153.229 84.2927 153.229 87.6724C153.229 87.8516 153.223 88.0247 153.211 88.2039C153.113 89.4578 153.356 90.7058 153.985 91.7866C154.758 93.1182 155.208 94.7185 155.208 96.4442C155.208 101.078 151.942 104.84 147.915 104.84C143.888 104.84 140.622 101.084 140.622 96.4442C140.622 94.7245 141.072 93.1242 141.845 91.7866Z" fill="url(#paint3_linear_130_2990)"/>
<path d="M151.238 95.9368C151.186 95.9069 151.128 95.889 151.065 95.889C150.949 95.889 150.845 95.9487 150.782 96.0503L148.797 99.418L148.237 100.367V99.2568V87.177C148.237 86.9919 148.087 86.8367 147.909 86.8367C147.73 86.8367 147.58 86.9919 147.58 87.177V91.542V92.6526L147.02 91.7032L146.409 90.6642C146.351 90.5627 146.241 90.503 146.126 90.503C146.068 90.503 146.005 90.5209 145.953 90.5508C145.797 90.6463 145.751 90.8553 145.843 91.0165L147.511 93.8409L147.528 93.8708L147.574 93.9484V94.038V99.1613V100.272L147.014 99.3225L145.082 96.0443C145.024 95.9428 144.914 95.8831 144.799 95.8831C144.741 95.8831 144.678 95.901 144.626 95.9308C144.47 96.0264 144.424 96.2354 144.516 96.3966L147.418 101.329C147.436 101.353 147.453 101.377 147.47 101.4L147.562 101.49V101.621V117.117H148.22V101.663V101.508L148.336 101.412C148.376 101.383 148.399 101.353 148.416 101.323L151.318 96.3906C151.44 96.2413 151.393 96.0323 151.238 95.9368Z" fill="#146357"/>
<path d="M242.722 67.2328C238.66 67.2328 234.708 68.8092 231.823 71.7709C231.805 71.7888 231.788 71.8067 231.771 71.8247L222.949 80.9547C218.42 85.6421 212.275 88.2336 205.871 88.2515C199.513 88.2694 193.414 90.8908 188.914 95.5483L179.833 104.947C175.321 109.617 169.199 112.244 162.818 112.244H151.492C146.231 112.244 141.067 113.677 136.515 116.406L80.382 149.994H318.523L260.371 73.5205C257.353 69.5496 252.738 67.2328 247.856 67.2328H242.722Z" fill="#D3D265"/>
<path d="M242.722 67.2328C238.66 67.2328 234.708 68.8092 231.823 71.7709C231.805 71.7888 231.788 71.8067 231.771 71.8247L222.949 80.9547C218.42 85.6421 212.275 88.2336 205.871 88.2515C199.513 88.2694 193.414 90.8908 188.914 95.5483L179.833 104.947C175.321 109.617 169.199 112.244 162.818 112.244H151.492C146.231 112.244 141.067 113.677 136.515 116.406L80.382 149.994H318.523L260.371 73.5205C257.353 69.5496 252.738 67.2328 247.856 67.2328H242.722Z" fill="#D3D265"/>
<path d="M151.158 143.444H169.938C175.587 143.444 180.981 141.091 184.985 136.971C188.96 132.875 194.344 130.576 199.957 130.576H230.79C235.51 130.576 240.212 131.203 244.781 132.445L309.459 150H123.631L136.145 145.868C140.998 144.262 146.063 143.444 151.158 143.444Z" fill="#ADB010"/>
<path d="M139.463 137.041C139.463 137.041 136.566 131.046 141.361 128.986C141.361 128.986 144.315 127.732 147.125 130.317V128.018C147.015 119.205 156.091 112.015 161.803 115.377C167.52 118.739 163.707 127.242 163.707 127.242C167.295 123.57 171.213 125.236 171.213 125.236C177.15 127.785 173.567 135.208 173.567 135.208C183.987 131.959 183.202 144.72 183.202 144.72H160.81H147.113H131.685C131.685 144.726 131.051 134.419 139.463 137.041Z" fill="#6E700A"/>
<path d="M235.065 112.295C235.048 111.512 234.886 110.688 234.361 110.133C233.974 109.721 233.432 109.5 232.895 109.375C231.367 109.016 229.693 109.351 228.401 110.27C227.628 110.82 226.889 111.608 225.949 111.59C224.72 111.572 223.976 110.246 223.335 109.16C222.083 107.046 219.972 105.129 217.589 105.38C216.141 105.529 214.831 106.503 214.075 107.786C213.319 109.07 213.083 110.641 213.238 112.139C213.36 113.274 213.694 114.391 213.712 115.531C213.74 117.657 212.679 119.615 212.136 121.669C211.594 123.724 211.802 126.345 213.59 127.396C215.235 128.363 217.416 127.515 219.129 128.345C219.412 128.483 219.706 128.727 219.677 129.05C219.643 129.45 219.17 129.593 218.795 129.695C216.042 130.411 214.277 133.839 215.24 136.603C216.077 139.01 218.425 140.437 220.647 141.566C223.722 143.136 226.924 144.545 230.311 145.089C233.697 145.638 237.321 145.268 240.275 143.464C243.177 141.691 245.208 138.705 246.719 135.588C247.648 133.672 248.433 131.588 248.306 129.45C248.179 127.312 246.933 125.115 244.942 124.524C242.785 123.879 240.586 125.198 238.371 125.551C238.93 124.345 238.723 122.804 237.869 121.801C237.078 120.869 235.809 120.481 234.649 120.726C233.784 120.905 232.382 121.896 232.261 120.386C232.169 119.215 233.461 117.872 233.934 116.898C234.626 115.471 235.105 113.913 235.065 112.295Z" fill="#6E700A"/>
<path d="M238.757 142.037L238.746 142.025C237.667 140.861 236.605 139.643 235.573 138.407C234.863 137.553 234.159 136.693 233.472 135.827C233.524 135.785 233.571 135.738 233.622 135.69C233.749 135.564 233.871 135.427 233.974 135.284C234.194 134.997 234.373 134.687 234.528 134.352C234.834 133.695 235.105 133.015 235.342 132.316C235.573 131.617 235.757 130.889 235.867 130.142C235.982 129.402 236.023 128.626 235.925 127.861C235.896 127.635 235.734 127.438 235.503 127.384C235.209 127.312 234.915 127.503 234.846 127.808L234.84 127.826C234.69 128.477 234.505 129.103 234.292 129.736C234.182 130.047 234.067 130.363 233.946 130.674C233.819 130.984 233.692 131.295 233.565 131.605C233.305 132.226 233.028 132.841 232.734 133.457C232.59 133.767 232.463 134.083 232.37 134.424C230.455 131.946 228.58 129.438 226.826 126.834C226.116 125.789 225.412 124.739 224.72 123.688C224.732 123.67 224.749 123.652 224.76 123.634C224.887 123.473 224.985 123.311 225.083 123.15C225.268 122.822 225.412 122.481 225.528 122.135C225.747 121.436 225.932 120.738 226.07 120.021C226.214 119.311 226.324 118.588 226.387 117.866C226.457 117.143 226.474 116.409 226.422 115.68C226.41 115.489 226.278 115.322 226.093 115.274C225.857 115.214 225.62 115.358 225.562 115.603V115.609L225.066 117.639C224.899 118.308 224.72 118.976 224.541 119.645C224.351 120.308 224.166 120.971 223.964 121.622C223.901 121.837 223.849 122.057 223.797 122.278C223.133 121.245 222.481 120.2 221.847 119.149C221.824 118.982 221.737 118.839 221.604 118.749C221.593 118.731 221.581 118.714 221.57 118.696C219.874 115.943 218.31 113.101 216.746 110.258L216.741 110.246C216.625 110.037 216.377 109.96 216.169 110.073C215.956 110.187 215.875 110.455 215.985 110.676L217.075 112.874C217.444 113.602 217.796 114.343 218.195 115.053C218.829 116.206 219.447 117.37 220.104 118.511C219.931 118.475 219.764 118.433 219.591 118.385C219.297 118.308 219.002 118.218 218.708 118.128C218.414 118.033 218.12 117.937 217.837 117.83H217.831C217.589 117.74 217.318 117.866 217.225 118.116C217.127 118.373 217.248 118.66 217.496 118.761C217.802 118.887 218.096 118.994 218.402 119.102C218.708 119.209 219.014 119.311 219.325 119.406C219.637 119.502 219.954 119.585 220.277 119.657C220.456 119.693 220.635 119.729 220.825 119.753C221.154 120.32 221.483 120.887 221.829 121.442L223.128 123.514C223.555 124.213 224.01 124.888 224.455 125.569C224.91 126.243 225.337 126.936 225.816 127.599L226.405 128.441C226.07 128.399 225.741 128.381 225.407 128.345L224.755 128.303L224.097 128.273C223.658 128.262 223.22 128.25 222.776 128.268H222.764C222.556 128.279 222.36 128.411 222.274 128.626C222.158 128.918 222.297 129.253 222.579 129.372C223.006 129.551 223.445 129.683 223.878 129.796C224.316 129.91 224.76 129.999 225.199 130.071C225.643 130.131 226.087 130.214 226.532 130.226C226.889 130.238 227.247 130.22 227.616 130.154L228.655 131.564C229.134 132.226 229.636 132.859 230.132 133.504C230.622 134.155 231.136 134.782 231.649 135.415C233.703 137.941 235.821 140.389 238.152 142.67C238.319 142.831 238.584 142.831 238.746 142.67C238.913 142.503 238.919 142.216 238.757 142.037Z" fill="#CACB68"/>
<path d="M148.475 42.112C150.703 44.7931 155.428 44.3632 155.428 44.3632C155.428 44.3632 156.541 39.5922 154.314 36.9111C152.087 34.23 147.362 34.6599 147.362 34.6599C147.362 34.6599 146.248 39.4309 148.475 42.112Z" fill="#CACB68"/>
<defs>
<linearGradient id="paint0_linear_130_2990" x1="175.269" y1="40.0161" x2="173.896" y2="70.2662" gradientUnits="userSpaceOnUse">
<stop stop-color="white"/>
<stop offset="1" stop-color="white" stop-opacity="0"/>
</linearGradient>
<linearGradient id="paint1_linear_130_2990" x1="158.884" y1="79.7107" x2="160.348" y2="112.968" gradientUnits="userSpaceOnUse">
<stop offset="0.4372" stop-color="#FFF459" stop-opacity="0.53"/>
<stop offset="0.9596" stop-color="#FFF459" stop-opacity="0"/>
</linearGradient>
<linearGradient id="paint2_linear_130_2990" x1="205.489" y1="47.9619" x2="206.038" y2="69.192" gradientUnits="userSpaceOnUse">
<stop offset="0.4372" stop-color="#FFF459" stop-opacity="0.53"/>
<stop offset="0.9596" stop-color="#FFF459" stop-opacity="0"/>
</linearGradient>
<linearGradient id="paint3_linear_130_2990" x1="147.915" y1="78.7431" x2="147.915" y2="97.5856" gradientUnits="userSpaceOnUse">
<stop offset="0.4372" stop-color="#FFF459" stop-opacity="0.53"/>
<stop offset="0.9596" stop-color="#FFF459" stop-opacity="0"/>
</linearGradient>
</defs>
</svg>
