<svg width="27" height="22" viewBox="0 0 27 22" fill="none" xmlns="http://www.w3.org/2000/svg">
<circle cx="13.627" cy="11" r="11" fill="#A8A8A8"/>
<path d="M12.5225 15.9363C12.1921 15.9363 11.9136 15.797 11.687 15.5186L8.80542 11.929C8.71574 11.8204 8.65202 11.7166 8.61426 11.6174C8.5765 11.5136 8.55762 11.4074 8.55762 11.2988C8.55762 11.0581 8.63786 10.8599 8.79834 10.7041C8.95882 10.5436 9.16414 10.4634 9.41431 10.4634C9.69279 10.4634 9.92643 10.5837 10.1152 10.8245L12.4941 13.8831L17.0962 6.56226C17.2048 6.40177 17.3157 6.28849 17.429 6.22241C17.5422 6.15161 17.6838 6.11621 17.8538 6.11621C18.0992 6.11621 18.2998 6.19409 18.4556 6.34985C18.616 6.5009 18.6963 6.69678 18.6963 6.9375C18.6963 7.0319 18.6798 7.12866 18.6467 7.22778C18.6184 7.3269 18.5688 7.43075 18.498 7.53931L13.3579 15.4973C13.1597 15.79 12.8812 15.9363 12.5225 15.9363Z" fill="white"/>
</svg>
