<svg width="319" height="150" viewBox="0 0 319 150" fill="none" xmlns="http://www.w3.org/2000/svg">
<path d="M0 12C0 5.37258 5.37258 0 12 0H307C313.627 0 319 5.37258 319 12V150H12C5.37259 150 0 144.627 0 138V12Z" fill="#F9776D"/>
<path d="M259.482 90.5785L252.164 90.6036C250.499 88.1907 247.431 86.58 243.911 86.5925C238.689 86.6113 234.431 90.19 234.255 94.6398L246.292 94.5959L253.486 94.5708L264.259 94.5332C264.179 92.3334 262.068 90.566 259.482 90.5785Z" fill="url(#paint0_linear_131_4375)"/>
<path d="M220.137 52.8506C222.729 49.6292 227.462 47.8368 232.224 48.5074C230.216 47.4607 223.263 44.8849 220.144 50.4941C214.44 45.1042 208.955 49.2281 208.955 49.2281C208.955 49.2281 217.376 48.5575 220.137 52.8506Z" fill="white"/>
<path opacity="0.51" d="M268.765 102.815C262.024 102.815 255.553 105.115 250.783 109.207L241.442 117.223C237.615 120.507 232.414 122.356 227.002 122.356H221.824C210.423 122.356 199.496 126.242 191.433 133.161L190.703 133.788L189.972 133.161C181.909 126.242 170.983 122.356 159.581 122.356H154.403C146.961 122.356 140.219 126.129 137.225 131.977L128 149.989H171.815H209.59H318.869L286.046 110.455C282.065 105.66 275.631 102.815 268.765 102.815Z" fill="white"/>
<path d="M267.744 129C265.392 129 263.186 129.489 261.275 130.339C259.532 131.038 257.996 132.01 256.768 133.198C254.812 131.905 252.298 131.131 249.556 131.131C245.483 131.131 241.917 132.843 239.932 135.404C238.668 134.577 237.058 134.083 235.293 134.083C231.411 134.083 228.243 136.475 228 139.503H238.293H242.579H253.629H254.489C254.489 145.302 260.422 150 267.744 150C275.067 150 281 145.302 281 139.503C280.993 133.698 275.06 129 267.744 129Z" fill="url(#paint1_linear_131_4375)"/>
<path d="M187.707 133.42C186.451 133.42 185.268 133.69 184.224 134.154C182.164 130.318 177.658 127.648 172.413 127.648C170.376 127.648 168.448 128.062 166.731 128.783C166.439 128.024 166.074 127.297 165.65 126.602C162.612 120.936 155.944 117 148.202 117C137.597 117 129 124.377 129 133.477C129 142.577 137.597 149.954 148.202 149.954C153.482 149.954 158.266 148.124 161.735 145.159C164.08 148.061 167.98 149.972 172.413 149.972C176.883 149.972 180.827 148.036 183.165 145.084C184.428 145.899 185.998 146.394 187.7 146.394C191.871 146.394 195.26 143.492 195.26 139.907C195.26 136.322 191.878 133.42 187.707 133.42Z" fill="url(#paint2_linear_131_4375)"/>
<path d="M205.7 141.082C208.286 141.082 210.652 141.899 212.507 143.254C215.414 139.039 220.651 136.23 226.625 136.23C230.65 136.23 234.338 137.508 237.208 139.635C240.955 135.588 246.637 133 252.999 133C263.852 133 272.719 140.511 273.391 150H243.146H232.607H216.4H210.111H195C195.351 145.025 200.003 141.082 205.7 141.082Z" fill="#79234C"/>
<path d="M205.7 141.082C208.286 141.082 210.652 141.899 212.507 143.254C215.414 139.039 220.651 136.23 226.625 136.23C230.65 136.23 234.338 137.508 237.208 139.635C240.955 135.588 246.637 133 252.999 133C263.852 133 272.719 140.511 273.391 150H243.146H232.607H216.4H210.111H195C195.351 145.025 200.003 141.082 205.7 141.082Z" fill="url(#paint3_linear_131_4375)"/>
<defs>
<linearGradient id="paint0_linear_131_4375" x1="249.087" y1="80.6185" x2="249.326" y2="106.524" gradientUnits="userSpaceOnUse">
<stop stop-color="white"/>
<stop offset="1" stop-color="white" stop-opacity="0"/>
</linearGradient>
<linearGradient id="paint1_linear_131_4375" x1="254.378" y1="129.649" x2="254.672" y2="169.032" gradientUnits="userSpaceOnUse">
<stop stop-color="#B32D75"/>
<stop offset="1" stop-color="white" stop-opacity="0"/>
</linearGradient>
<linearGradient id="paint2_linear_131_4375" x1="161.926" y1="117.762" x2="162.429" y2="179.981" gradientUnits="userSpaceOnUse">
<stop stop-color="white"/>
<stop offset="1" stop-color="white" stop-opacity="0"/>
</linearGradient>
<linearGradient id="paint3_linear_131_4375" x1="234.191" y1="124.593" x2="234.191" y2="148.232" gradientUnits="userSpaceOnUse">
<stop offset="0.4372" stop-color="#FFF456" stop-opacity="0.53"/>
<stop offset="0.9596" stop-color="#FFF456" stop-opacity="0"/>
</linearGradient>
</defs>
</svg>
