<svg width="319" height="150" viewBox="0 0 319 150" fill="none" xmlns="http://www.w3.org/2000/svg">
<path d="M0 12C0 5.37258 5.37258 0 12 0H307C313.627 0 319 5.37258 319 12V149.171H12C5.37259 149.171 0 143.799 0 137.171V12Z" fill="#8E97FD"/>
<mask id="mask0_131_4440" style="mask-type:alpha" maskUnits="userSpaceOnUse" x="0" y="0" width="319" height="149">
<path d="M0 12C0 5.37258 5.37258 0 12 0H307C313.627 0 319 5.37258 319 12V149H12C5.37259 149 0 143.627 0 137V12Z" fill="#8E97FD"/>
</mask>
<g mask="url(#mask0_131_4440)">
<path d="M235.464 75.0881C226.625 77.788 219.216 81.6571 209.852 83.856C199.542 86.2751 187.786 86.4598 176.846 88.0161C157.686 90.7413 141.208 97.9303 133.07 107.116C124.931 116.301 125.281 127.309 134.005 136.355C136.561 139.007 139.863 141.53 144.37 143.405C154.035 147.428 167.671 147.899 180.122 147.256C192.573 146.613 204.999 145.044 217.45 145.682C226.155 146.13 234.559 147.646 243.288 147.949C251.972 148.25 260.666 147.334 268.93 145.95C284.423 143.354 299.15 138.918 308.765 132.248C318.379 125.578 322.161 116.468 316.003 108.824C310.355 101.809 297.504 96.9029 290.496 90.2074C287.174 87.0342 285.238 83.522 281.752 80.3944C272.697 72.2692 250.591 70.4675 235.464 75.0881Z" fill="#808AFF"/>
<path d="M191.313 74.1342C189.802 74.5112 188.311 74.9363 187.126 75.5411C185.975 76.1281 185.165 76.8569 184.379 77.5806C182.989 78.8661 181.598 80.3641 182.594 81.7381C183.249 82.6415 184.86 83.3044 186.641 83.6461C188.421 83.9851 190.357 84.0408 192.258 84.0281C198.021 83.9902 203.764 83.3525 209.031 82.1708C210.617 81.814 212.178 81.4041 213.494 80.8322C214.829 80.2527 215.89 79.5189 216.695 78.7269C218.101 77.3453 218.666 75.5436 216.78 74.3138C215.434 73.4358 213.183 73.0688 211.032 72.8487C204.109 72.1402 197.661 72.5476 191.313 74.1342Z" fill="#808AFF"/>
<path d="M280.185 147.183C280.095 147.183 280.005 147.163 279.95 147.122C279.85 147.057 279.88 146.963 280.01 146.912C290.35 142.967 298.419 137.679 303.337 131.621C304.182 130.581 304.647 129.035 303.682 128.093C303.266 127.689 302.616 127.433 301.756 127.337C300.61 127.205 299.42 127.441 298.389 127.673C296.233 128.154 294.142 128.736 292.176 129.402C291.216 129.726 290.265 130.077 289.36 130.442C289.25 130.485 289.095 130.563 288.91 130.654C287.999 131.102 287.259 131.439 286.678 131.327C286.533 131.3 286.453 131.219 286.498 131.145C286.643 130.897 286.819 130.664 286.984 130.439C287.364 129.928 287.719 129.442 287.739 128.853C287.754 128.384 287.549 128.056 287.129 127.876C286.748 127.714 286.163 127.658 285.393 127.706C283.677 127.815 282.081 128.309 281.016 129.058C280.941 129.111 280.801 129.133 280.681 129.111C280.555 129.088 280.475 129.03 280.48 128.961C280.515 128.569 280.676 128.167 280.831 127.78C280.911 127.58 280.991 127.38 281.051 127.183C282.496 122.557 283.217 117.838 283.182 113.156C283.172 111.519 282.576 107.648 277.314 107.015C274.062 106.625 270.811 107.807 268.845 109.042C264.068 112.051 262.942 116.206 262.037 119.546C262.017 119.622 261.886 119.675 261.736 119.675C261.586 119.672 261.461 119.614 261.446 119.538C261.281 118.627 260.271 117.752 258.675 117.139C257.079 116.527 255.138 116.271 253.357 116.436C251.576 116.603 249.951 117.192 248.89 118.053C248.175 118.632 247.795 119.275 247.775 119.9C247.995 120.206 248.08 120.527 248.005 120.851C247.99 120.922 247.875 120.978 247.735 120.983C247.58 120.988 247.464 120.942 247.424 120.874C247.259 120.576 247.179 120.267 247.179 119.953C246.909 119.614 246.439 119.298 245.789 119.037C244.298 118.435 242.182 118.227 240.526 118.521C237.194 119.113 235.459 120.965 234.943 122.501C234.943 122.501 234.943 122.501 234.943 122.504C234.918 122.585 234.768 122.638 234.603 122.628C234.443 122.615 234.333 122.537 234.358 122.456C234.633 121.59 233.853 120.758 232.207 120.166C229.986 119.366 226.914 119.224 224.738 119.819C220.436 120.998 218.956 123.734 218.47 125.821C218.455 125.897 218.325 125.953 218.175 125.953C218.175 125.953 218.17 125.953 218.165 125.953C218.01 125.95 217.89 125.889 217.88 125.814L216.935 118.255C216.695 116.319 215.584 113.015 210.872 112.643C206.395 112.288 203.373 114.973 202.558 115.803C200.021 118.377 198.716 121.246 198.766 124.121C198.786 124.245 198.791 124.369 198.781 124.493C198.771 124.574 198.631 124.632 198.481 124.634C198.321 124.634 198.191 124.569 198.186 124.49C198.181 124.371 198.176 124.255 198.171 124.136C198.036 123.374 197.225 122.62 195.914 122.069C194.409 121.433 192.503 121.175 190.817 121.378C189.131 121.58 187.655 122.241 186.865 123.149C186.08 124.057 186.115 125.054 186.965 125.819C187.035 125.879 187.01 125.958 186.905 126.003C186.8 126.049 186.645 126.054 186.535 126.013C184.759 125.368 184.129 124.232 183.518 123.131C182.843 121.917 182.203 120.768 180.122 120.381C177.976 119.981 175.58 120.793 174.589 121.778C173.509 122.85 173.544 124.136 173.574 125.27C173.574 125.345 173.469 125.409 173.319 125.419C173.173 125.431 173.033 125.383 172.988 125.313C170.412 120.786 164.914 116.714 157.521 113.852C154.359 112.627 149.917 111.909 147.636 113.217C146.616 113.804 146.355 114.659 146.225 115.494C145.465 120.452 147.531 125.616 152.043 130.034C152.113 130.1 152.073 130.181 151.953 130.224C151.833 130.267 151.668 130.26 151.568 130.204C150.272 129.5 148.802 128.706 146.931 128.331C145.26 127.997 142.869 128.076 141.733 128.88C141.153 129.293 140.988 129.824 140.918 130.242C140.688 131.537 141.098 132.856 142.108 134.053C142.168 134.126 142.108 134.21 141.968 134.245C141.828 134.28 141.658 134.255 141.578 134.187C140.117 132.899 138.257 131.479 135.525 130.69C133.079 129.984 129.307 129.852 127.131 130.996C123.199 133.066 127.806 136.527 129.973 137.919C134.86 141.062 140.403 144.627 148.171 146.358C148.321 146.391 148.386 146.48 148.321 146.556C148.256 146.631 148.081 146.667 147.931 146.631C140.027 144.87 134.44 141.275 129.507 138.104C127.246 136.649 122.444 133.028 126.701 130.786C129.087 129.531 133.174 129.665 135.815 130.427C137.876 131.021 139.452 131.95 140.733 132.919C140.303 132.038 140.157 131.12 140.323 130.214C140.403 129.761 140.583 129.179 141.248 128.706C142.574 127.767 145.22 127.666 147.146 128.053C148.512 128.326 149.657 128.799 150.668 129.303C146.646 124.994 144.905 120.234 145.635 115.469C145.77 114.581 146.055 113.67 147.191 113.017C149.722 111.562 154.504 112.306 157.881 113.612C164.864 116.314 170.172 120.075 172.978 124.285C173.018 123.392 173.228 122.466 174.059 121.638C175.164 120.543 177.871 119.642 180.322 120.097C182.693 120.538 183.398 121.813 184.089 123.048C184.539 123.855 184.999 124.682 185.915 125.287C185.544 124.576 185.68 123.772 186.325 123.025C187.185 122.031 188.816 121.304 190.682 121.082C192.548 120.859 194.649 121.14 196.295 121.833C197.135 122.187 197.785 122.618 198.216 123.083C198.456 120.512 199.756 117.974 202.027 115.667C202.893 114.791 206.089 111.962 210.962 112.344C216.079 112.746 217.27 116.206 217.525 118.232L218.305 124.465C219.096 122.582 220.807 120.55 224.453 119.551C226.819 118.903 230.146 119.055 232.547 119.915C233.723 120.338 234.503 120.874 234.828 121.466C235.689 120.107 237.45 118.744 240.326 118.235C242.192 117.903 244.483 118.126 246.154 118.799C246.599 118.979 246.974 119.181 247.264 119.399C247.424 118.88 247.8 118.364 248.385 117.888C249.53 116.955 251.306 116.317 253.247 116.135C255.188 115.952 257.299 116.228 259.03 116.894C260.271 117.37 261.186 117.995 261.671 118.678C262.567 115.459 263.887 111.674 268.385 108.847C269.39 108.212 273.022 106.182 277.449 106.716C279.795 106.997 283.742 108.209 283.772 113.149C283.802 117.845 283.082 122.58 281.631 127.22C281.566 127.42 281.486 127.625 281.406 127.83C281.321 128.045 281.231 128.266 281.166 128.483C282.286 127.886 283.752 127.496 285.313 127.398C286.258 127.337 286.994 127.418 287.504 127.635C288.074 127.878 288.344 128.276 288.324 128.848C288.304 129.49 287.929 129.996 287.529 130.533C287.419 130.68 287.309 130.829 287.204 130.983C287.619 130.857 288.239 130.551 288.484 130.429C288.684 130.33 288.86 130.244 288.975 130.196C289.895 129.824 290.855 129.47 291.831 129.141C293.827 128.465 295.948 127.876 298.134 127.387C299.335 127.119 300.615 126.892 301.871 127.033C302.911 127.152 303.692 127.458 304.192 127.944C305.252 128.974 304.797 130.586 303.872 131.722C298.914 137.833 290.78 143.165 280.35 147.14C280.31 147.173 280.245 147.183 280.185 147.183Z" fill="#8E97FD"/>
<path d="M275.594 143.863C275.454 143.866 275.321 143.828 275.29 143.769C273.623 140.93 272.483 138.017 271.9 135.11C271.742 134.32 271.59 133.387 271.672 132.447C271.913 129.665 274.143 126.885 278.128 124.404C281.815 122.107 287.048 120.073 293.25 118.517C293.389 118.481 293.579 118.499 293.668 118.555C293.757 118.611 293.713 118.688 293.573 118.724C287.441 120.259 282.277 122.268 278.641 124.534C274.719 126.977 272.521 129.716 272.287 132.452C272.204 133.38 272.356 134.305 272.515 135.087C273.098 137.982 274.232 140.884 275.885 143.71C275.923 143.777 275.822 143.84 275.663 143.856C275.632 143.861 275.613 143.863 275.594 143.863Z" fill="#565D70"/>
<path d="M294.285 117.72C294.577 117.615 294.925 117.536 295.28 117.469C296.382 117.257 297.662 117.127 298.821 117.28C298.929 117.293 299.03 117.311 299.113 117.344C299.189 117.375 299.227 117.418 299.246 117.459C299.315 117.62 299.1 117.776 298.866 117.906C298.15 118.297 297.098 118.576 295.951 118.708C295.293 118.785 292.942 118.979 293.221 118.479C293.367 118.2 293.753 117.909 294.285 117.72Z" fill="#565D70"/>
<path d="M289.064 120.548C290.445 120.495 291.839 120.53 293.22 120.574C294.101 120.602 294.981 120.635 295.862 120.671C296.039 120.679 296.255 120.702 296.286 120.771C296.324 120.847 296.096 120.898 295.919 120.932C294.69 121.154 293.936 121.662 292.814 121.964C292.004 122.181 291.034 122.281 290.065 122.334C289.254 122.378 288.43 122.391 287.613 122.373C286.948 122.357 286.257 122.316 285.713 122.163C285.161 122.007 284.826 121.736 284.813 121.466C284.8 121.128 285.453 120.927 286.169 120.817C287.094 120.671 288.088 120.584 289.064 120.548Z" fill="#565D70"/>
<path d="M280.505 125.212C281.886 125.158 283.28 125.194 284.661 125.237C285.542 125.265 286.422 125.298 287.303 125.334C287.48 125.342 287.696 125.362 287.727 125.434C287.765 125.51 287.537 125.562 287.36 125.595C286.131 125.817 285.377 126.326 284.256 126.627C283.445 126.844 282.475 126.944 281.506 126.998C280.695 127.041 279.872 127.054 279.054 127.036C278.389 127.021 277.699 126.98 277.154 126.826C276.603 126.67 276.267 126.4 276.254 126.129C276.242 125.792 276.894 125.59 277.61 125.48C278.535 125.337 279.523 125.25 280.505 125.212Z" fill="#565D70"/>
<path d="M275.937 129.578C277.204 129.353 278.56 129.21 279.903 129.077C280.764 128.993 281.626 128.911 282.487 128.835C282.658 128.819 282.88 128.814 282.969 128.875C283.064 128.944 282.893 129.021 282.747 129.072C281.752 129.44 281.436 130.018 280.606 130.444C280.004 130.753 279.161 130.971 278.287 131.142C277.552 131.285 276.779 131.402 275.987 131.487C275.348 131.556 274.657 131.604 274.017 131.528C273.371 131.448 272.845 131.236 272.617 130.978C272.338 130.661 272.801 130.386 273.396 130.191C274.163 129.943 275.037 129.737 275.937 129.578Z" fill="#565D70"/>
<path d="M275.386 134.938C276.596 134.663 277.901 134.468 279.213 134.282C280.049 134.164 280.885 134.049 281.728 133.939C281.893 133.916 282.114 133.901 282.216 133.96C282.323 134.024 282.171 134.108 282.045 134.167C281.145 134.571 280.968 135.161 280.245 135.618C279.726 135.95 278.934 136.201 278.104 136.405C277.407 136.579 276.666 136.724 275.899 136.839C275.279 136.934 274.607 137.011 273.955 136.957C273.296 136.903 272.713 136.714 272.428 136.466C272.073 136.16 272.466 135.869 273.011 135.651C273.714 135.373 274.531 135.133 275.386 134.938Z" fill="#565D70"/>
<path d="M282.235 121.189C282.235 120.87 282.209 120.548 282.07 120.234C281.962 119.983 281.785 119.736 281.601 119.493C281.012 118.701 280.334 117.881 278.883 117.295C278.839 117.278 278.788 117.257 278.725 117.249C278.566 117.226 278.395 117.278 278.332 117.341C278.269 117.403 278.281 117.474 278.275 117.541C278.262 117.689 278.148 117.832 278.034 117.973C277.737 118.346 277.439 118.721 277.141 119.094C276.691 119.656 276.241 120.226 276.14 120.816C276.039 121.407 276.317 122.027 277.211 122.495C277.508 122.651 277.87 122.789 278.256 122.909C278.623 123.024 279.029 123.129 279.479 123.17C280.087 123.226 280.752 123.157 281.221 122.991C281.759 122.802 281.949 122.492 282.025 122.217C282.133 121.874 282.228 121.534 282.235 121.189Z" fill="#565D70"/>
<path d="M274.798 124.757C274.468 124.465 274.113 124.177 273.663 123.913C273.302 123.704 272.891 123.51 272.472 123.318C271.123 122.695 269.66 122.064 267.74 121.775C267.677 121.765 267.613 121.757 267.55 121.759C267.385 121.765 267.278 121.841 267.284 121.908C267.29 121.974 267.373 122.038 267.436 122.099C267.575 122.237 267.62 122.385 267.664 122.531C267.778 122.922 267.892 123.31 268.006 123.701C268.177 124.289 268.355 124.882 268.868 125.434C269.381 125.988 270.281 126.504 271.573 126.783C272.004 126.875 272.472 126.939 272.954 126.985C273.404 127.028 273.879 127.056 274.335 127.018C274.943 126.967 275.482 126.793 275.741 126.563C276.039 126.3 275.887 125.988 275.678 125.725C275.412 125.395 275.146 125.068 274.798 124.757Z" fill="#565D70"/>
<path d="M268.411 129.938C267.695 129.8 266.96 129.675 266.194 129.59C265.586 129.524 264.958 129.483 264.331 129.445C262.304 129.32 260.175 129.217 258.243 129.496C258.18 129.506 258.116 129.514 258.072 129.534C257.952 129.583 257.996 129.667 258.104 129.718C258.218 129.769 258.376 129.792 258.528 129.826C258.851 129.895 259.124 129.997 259.39 130.096C260.099 130.365 260.809 130.633 261.525 130.901C262.595 131.305 263.679 131.714 264.958 132.003C266.238 132.291 267.746 132.455 269.178 132.33C269.659 132.289 270.115 132.215 270.552 132.125C270.971 132.041 271.37 131.939 271.661 131.79C272.048 131.594 272.174 131.32 272.01 131.078C271.813 130.799 271.205 130.6 270.622 130.452C269.906 130.27 269.184 130.086 268.411 129.938Z" fill="#565D70"/>
<path d="M268.866 135.278C268.15 135.14 267.416 135.015 266.649 134.931C266.041 134.864 265.414 134.824 264.786 134.785C262.759 134.66 260.631 134.558 258.698 134.836C258.635 134.847 258.572 134.854 258.527 134.875C258.407 134.923 258.451 135.007 258.559 135.059C258.673 135.11 258.831 135.133 258.983 135.166C259.307 135.235 259.579 135.337 259.845 135.437C260.555 135.705 261.264 135.973 261.98 136.242C263.051 136.645 264.134 137.054 265.414 137.343C266.693 137.632 268.201 137.795 269.633 137.67C270.114 137.629 270.571 137.555 271.008 137.465C271.426 137.381 271.825 137.279 272.116 137.131C272.503 136.934 272.63 136.661 272.465 136.418C272.268 136.139 271.66 135.94 271.077 135.792C270.355 135.608 269.633 135.427 268.866 135.278Z" fill="#565D70"/>
<path d="M265.327 131.808C265.967 130.625 267.994 129.225 270.946 129.45C273.024 129.608 274.152 130.515 274.766 131.333C276.116 133.116 276.54 135.015 276.008 136.867C276.109 134.43 277.769 132.008 280.791 129.897C281.754 129.222 283.11 128.517 285.029 128.448C287.05 128.374 288.831 129.09 289.382 129.877C289.933 130.666 289.559 131.504 289.179 132.309C290.326 127.626 292.872 122.431 302.445 119.741C304.377 119.196 306.626 118.775 308.983 118.775C311.34 118.775 313.798 119.281 314.704 120.16C315.198 120.637 315.204 121.171 315.115 121.688C314.362 126.011 307.589 129.757 300.456 133.001C302.16 132.697 303.927 132.388 305.79 132.378C307.653 132.368 309.661 132.736 310.345 133.436C311.188 134.299 309.737 135.265 307.931 135.843C306.132 136.42 303.927 136.796 302.363 137.478C305.644 137.169 309.971 137.036 311.523 138.245C312.208 138.781 312.062 139.425 311.751 140.015C309.883 143.518 302.274 146.398 293.487 146.929C273.537 148.13 261.633 138.625 265.327 131.808Z" fill="#F2EDE4"/>
<path d="M281.519 145.417C281.5 145.417 281.481 145.417 281.462 145.414C281.348 145.401 281.285 145.353 281.317 145.309C281.456 145.115 295.298 125.858 311.175 120.254C311.263 120.224 311.396 120.226 311.472 120.262C311.548 120.298 311.542 120.351 311.453 120.382C295.672 125.955 281.861 145.161 281.728 145.355C281.697 145.394 281.608 145.417 281.519 145.417Z" fill="#D9C9AC"/>
<path d="M282.881 143.616C282.83 143.616 282.786 143.611 282.748 143.595C267.943 138.728 269.584 131.722 269.596 131.653C269.609 131.607 269.717 131.571 269.831 131.576C269.945 131.581 270.033 131.622 270.021 131.671C270.002 131.74 268.393 138.656 283.014 143.462C283.103 143.493 283.122 143.547 283.046 143.582C283.002 143.605 282.938 143.616 282.881 143.616Z" fill="#D9C9AC"/>
<path d="M286.734 138.981C286.651 138.981 286.569 138.96 286.537 138.93C282.584 135.151 285.011 129.711 285.036 129.657C285.055 129.611 285.163 129.578 285.283 129.588C285.397 129.596 285.473 129.642 285.454 129.688C285.429 129.741 283.028 135.13 286.93 138.863C286.974 138.907 286.924 138.958 286.816 138.976C286.791 138.978 286.765 138.981 286.734 138.981Z" fill="#D9C9AC"/>
<path d="M283.711 144.54C282.754 144.54 282.196 144.52 282.165 144.52C282.051 144.515 281.962 144.474 281.975 144.425C281.987 144.379 282.089 144.341 282.209 144.349C282.38 144.356 299.409 144.954 308.019 139.192C308.082 139.152 308.209 139.139 308.31 139.164C308.412 139.19 308.443 139.241 308.38 139.282C301.17 144.106 288.171 144.54 283.711 144.54Z" fill="#D9C9AC"/>
<path d="M289.065 136.431C288.951 136.431 288.856 136.395 288.849 136.349C288.843 136.303 288.938 136.262 289.052 136.26C289.153 136.257 299.258 136.099 306.252 133.661C306.341 133.63 306.474 133.633 306.55 133.669C306.626 133.704 306.62 133.758 306.531 133.789C299.423 136.267 289.172 136.428 289.071 136.431C289.065 136.431 289.065 136.431 289.065 136.431Z" fill="#D9C9AC"/>
<path d="M298.447 127.802C298.339 127.802 298.244 127.769 298.231 127.723C298.225 127.692 297.725 124.616 301.336 122.079C301.393 122.038 301.526 122.025 301.627 122.048C301.729 122.071 301.767 122.125 301.703 122.166C298.155 124.654 298.65 127.682 298.656 127.713C298.662 127.759 298.574 127.802 298.46 127.805C298.46 127.802 298.453 127.802 298.447 127.802Z" fill="#D9C9AC"/>
<path d="M303.229 124.417C303.14 124.417 303.052 124.394 303.026 124.358C302.988 124.312 303.052 124.263 303.166 124.25C303.242 124.24 310.616 123.3 312.77 122.25C312.846 122.214 312.979 122.209 313.068 122.24C313.156 122.27 313.169 122.324 313.093 122.36C310.857 123.448 303.596 124.376 303.286 124.414C303.273 124.414 303.254 124.417 303.229 124.417Z" fill="#D9C9AC"/>
<path d="M295.628 130.883C295.089 130.883 294.779 130.847 294.734 130.842C294.62 130.827 294.563 130.781 294.595 130.735C294.633 130.689 294.747 130.663 294.861 130.679C294.893 130.681 298.048 131.042 302.596 129.174C302.679 129.141 302.812 129.138 302.894 129.174C302.976 129.207 302.976 129.261 302.894 129.294C299.543 130.671 296.926 130.883 295.628 130.883Z" fill="#D9C9AC"/>
<path d="M284.339 135.419C283.484 135.419 281.431 135.237 280.113 133.63C280.075 133.584 280.139 133.536 280.246 133.523C280.361 133.508 280.481 133.533 280.513 133.577C282.052 135.449 284.529 135.248 284.63 135.237C284.745 135.225 284.859 135.255 284.884 135.301C284.909 135.347 284.84 135.393 284.726 135.403C284.706 135.406 284.567 135.419 284.339 135.419Z" fill="#D9C9AC"/>
<path d="M273.77 139.116C273.764 139.116 273.764 139.116 273.758 139.116C273.612 139.111 270.102 139.001 267.904 137.169C267.853 137.126 267.898 137.074 268.005 137.054C268.107 137.034 268.24 137.051 268.29 137.095C270.381 138.837 273.751 138.942 273.783 138.945C273.897 138.947 273.992 138.988 273.979 139.037C273.979 139.08 273.884 139.116 273.77 139.116Z" fill="#D9C9AC"/>
<path d="M277.446 141.4C277.401 141.4 277.357 141.395 277.319 141.382C277.224 141.354 277.211 141.3 277.281 141.262C277.3 141.252 279.289 140.163 277.636 137.307C277.61 137.261 277.68 137.215 277.794 137.205C277.908 137.194 278.022 137.222 278.047 137.268C279.752 140.217 277.699 141.323 277.61 141.367C277.566 141.39 277.509 141.4 277.446 141.4Z" fill="#D9C9AC"/>
<path d="M291.15 144.198C291.131 144.198 291.112 144.198 291.099 144.195C290.985 144.183 290.916 144.137 290.947 144.091C291.055 143.922 293.653 139.928 298.461 139.006C298.569 138.985 298.695 139.003 298.746 139.047C298.797 139.09 298.752 139.141 298.645 139.162C294.02 140.051 291.391 144.093 291.365 144.134C291.334 144.172 291.245 144.198 291.15 144.198Z" fill="#D9C9AC"/>
<path d="M301.735 143.585C301.387 143.585 301.064 143.562 300.772 143.514C299.569 143.319 299.303 142.806 299.29 142.783C299.265 142.737 299.341 142.691 299.455 142.683C299.575 142.673 299.683 142.704 299.708 142.75C299.708 142.755 299.942 143.197 300.937 143.355C301.97 143.519 303.503 143.327 305.378 142.793C305.473 142.765 305.606 142.775 305.676 142.813C305.746 142.852 305.72 142.905 305.625 142.934C304.092 143.365 302.793 143.585 301.735 143.585Z" fill="#D9C9AC"/>
<path d="M218.661 123.003C218.801 123.006 218.934 122.967 218.965 122.909C220.632 120.07 221.772 117.157 222.355 114.25C222.513 113.46 222.665 112.527 222.583 111.587C222.342 108.805 220.112 106.025 216.127 103.544C212.44 101.247 207.207 99.2128 201.005 97.6567C200.866 97.621 200.676 97.6389 200.587 97.6951C200.498 97.7513 200.543 97.8279 200.682 97.8637C206.814 99.3993 211.978 101.408 215.614 103.674C219.536 106.117 221.734 108.856 221.968 111.592C222.051 112.52 221.899 113.445 221.74 114.227C221.157 117.121 220.023 120.024 218.37 122.85C218.332 122.916 218.433 122.98 218.592 122.996C218.623 123.001 218.642 123.003 218.661 123.003Z" fill="#565D70"/>
<path d="M199.974 96.8597C199.682 96.7549 199.334 96.6757 198.979 96.6093C197.877 96.3972 196.597 96.2669 195.438 96.4202C195.33 96.433 195.229 96.4508 195.146 96.4841C195.07 96.5147 195.032 96.5582 195.013 96.599C194.944 96.76 195.159 96.9159 195.393 97.0462C196.109 97.4371 197.161 97.7156 198.308 97.8485C198.966 97.9251 201.317 98.1193 201.038 97.6185C200.899 97.34 200.506 97.0487 199.974 96.8597Z" fill="#565D70"/>
<path d="M205.193 99.6884C203.812 99.6348 202.419 99.6705 201.037 99.714C200.157 99.7421 199.276 99.7753 198.396 99.8111C198.218 99.8187 198.003 99.8417 197.971 99.9107C197.933 99.9874 198.161 100.038 198.339 100.072C199.568 100.294 200.322 100.802 201.443 101.104C202.254 101.321 203.223 101.421 204.192 101.474C205.003 101.518 205.827 101.531 206.644 101.513C207.309 101.497 208 101.457 208.545 101.303C209.096 101.147 209.432 100.877 209.444 100.606C209.457 100.268 208.804 100.067 208.089 99.9567C207.164 99.8111 206.175 99.7268 205.193 99.6884Z" fill="#565D70"/>
<path d="M213.758 104.352C212.377 104.298 210.983 104.334 209.602 104.377C208.722 104.405 207.841 104.438 206.961 104.474C206.783 104.482 206.568 104.505 206.536 104.574C206.498 104.65 206.726 104.702 206.904 104.735C208.133 104.957 208.887 105.466 210.008 105.767C210.819 105.984 211.788 106.084 212.757 106.138C213.568 106.181 214.392 106.194 215.209 106.176C215.874 106.161 216.565 106.12 217.11 105.966C217.661 105.81 217.997 105.54 218.009 105.269C218.022 104.932 217.369 104.73 216.654 104.62C215.722 104.477 214.734 104.39 213.758 104.352Z" fill="#565D70"/>
<path d="M218.318 108.718C217.051 108.493 215.695 108.35 214.352 108.217C213.491 108.133 212.629 108.054 211.768 107.975C211.597 107.959 211.375 107.954 211.286 108.015C211.191 108.084 211.362 108.161 211.508 108.212C212.502 108.58 212.819 109.158 213.649 109.584C214.251 109.893 215.094 110.111 215.968 110.282C216.703 110.425 217.476 110.542 218.268 110.627C218.907 110.696 219.598 110.744 220.238 110.668C220.884 110.588 221.41 110.376 221.638 110.118C221.917 109.801 221.454 109.526 220.859 109.331C220.092 109.083 219.218 108.877 218.318 108.718Z" fill="#565D70"/>
<path d="M218.872 114.079C217.662 113.803 216.356 113.608 215.045 113.422C214.209 113.304 213.373 113.189 212.53 113.079C212.365 113.056 212.144 113.041 212.042 113.1C211.934 113.164 212.087 113.248 212.213 113.307C213.113 113.711 213.29 114.301 214.012 114.758C214.532 115.09 215.324 115.341 216.154 115.545C216.851 115.719 217.592 115.865 218.358 115.98C218.979 116.074 219.651 116.151 220.303 116.097C220.962 116.043 221.545 115.854 221.83 115.606C222.185 115.3 221.792 115.009 221.247 114.791C220.544 114.513 219.727 114.273 218.872 114.079Z" fill="#565D70"/>
<path d="M212.024 100.332C212.024 100.012 212.049 99.6905 212.188 99.3762C212.296 99.1258 212.473 98.878 212.657 98.6353C213.246 97.8432 213.924 97.023 215.375 96.4379C215.419 96.42 215.47 96.3996 215.533 96.3919C215.692 96.3689 215.863 96.42 215.926 96.4839C215.989 96.5452 215.977 96.6167 215.983 96.6832C215.996 96.8314 216.11 96.9745 216.224 97.115C216.522 97.488 216.819 97.8636 217.117 98.2367C217.567 98.7988 218.017 99.3686 218.118 99.9588C218.219 100.549 217.941 101.17 217.047 101.637C216.75 101.793 216.389 101.931 216.002 102.051C215.635 102.166 215.229 102.271 214.779 102.312C214.171 102.368 213.506 102.299 213.037 102.133C212.499 101.944 212.309 101.635 212.233 101.359C212.125 101.017 212.03 100.674 212.024 100.332Z" fill="#565D70"/>
<path d="M219.46 103.897C219.79 103.606 220.145 103.317 220.594 103.054C220.955 102.844 221.367 102.65 221.785 102.458C223.135 101.835 224.598 101.204 226.518 100.915C226.581 100.905 226.644 100.897 226.708 100.9C226.873 100.905 226.98 100.981 226.974 101.048C226.968 101.114 226.885 101.178 226.822 101.24C226.683 101.378 226.638 101.526 226.594 101.671C226.48 102.062 226.366 102.451 226.252 102.842C226.081 103.429 225.903 104.022 225.39 104.574C224.877 105.128 223.977 105.645 222.685 105.923C222.254 106.015 221.785 106.079 221.304 106.125C220.854 106.168 220.379 106.196 219.923 106.158C219.315 106.107 218.776 105.933 218.516 105.703C218.219 105.44 218.371 105.128 218.58 104.865C218.852 104.536 219.112 104.209 219.46 103.897Z" fill="#565D70"/>
<path d="M225.847 109.08C226.563 108.942 227.298 108.817 228.064 108.733C228.673 108.667 229.3 108.626 229.927 108.587C231.954 108.462 234.083 108.36 236.015 108.638C236.078 108.646 236.142 108.656 236.186 108.677C236.306 108.725 236.262 108.81 236.154 108.861C236.04 108.912 235.882 108.937 235.73 108.968C235.407 109.037 235.134 109.139 234.868 109.239C234.159 109.507 233.449 109.775 232.733 110.044C231.663 110.447 230.579 110.856 229.3 111.145C228.02 111.434 226.512 111.597 225.08 111.472C224.599 111.431 224.143 111.357 223.706 111.268C223.288 111.183 222.888 111.081 222.597 110.933C222.211 110.736 222.084 110.463 222.249 110.22C222.445 109.942 223.053 109.742 223.636 109.594C224.358 109.41 225.074 109.226 225.847 109.08Z" fill="#565D70"/>
<path d="M225.398 114.418C226.113 114.28 226.848 114.155 227.615 114.071C228.223 114.004 228.85 113.964 229.477 113.925C231.505 113.8 233.633 113.698 235.566 113.976C235.629 113.987 235.692 113.994 235.737 114.015C235.857 114.063 235.813 114.148 235.705 114.199C235.591 114.25 235.433 114.275 235.281 114.306C234.957 114.375 234.685 114.477 234.419 114.577C233.709 114.845 233 115.113 232.284 115.382C231.213 115.785 230.13 116.194 228.85 116.483C227.571 116.772 226.063 116.935 224.631 116.81C224.15 116.769 223.693 116.695 223.256 116.606C222.838 116.521 222.439 116.419 222.148 116.271C221.761 116.074 221.634 115.801 221.799 115.558C221.996 115.279 222.604 115.08 223.187 114.932C223.902 114.748 224.625 114.567 225.398 114.418Z" fill="#565D70"/>
<path d="M176.011 10.6645C178.425 10.6645 178.425 9.15192 176.011 9.15192C173.598 9.15447 173.598 10.6645 176.011 10.6645Z" fill="#8E97FD"/>
<path d="M281.076 41.7622C282.28 41.7622 282.286 41.0059 281.076 41.0059C279.872 41.0059 279.872 41.7622 281.076 41.7622Z" fill="#59D6B8"/>
<path d="M144.024 23.5825C145.228 23.5825 145.234 22.8262 144.024 22.8262C142.814 22.8262 142.814 23.5825 144.024 23.5825Z" fill="#8ABFA3"/>
<path d="M145.895 15.5547C145.895 15.5215 145.895 15.4883 145.895 15.4551C145.895 15.0591 145.033 14.6809 144.02 14.6988C143.006 14.7167 142.145 15.031 142.145 15.4551C142.145 15.4883 142.145 15.5215 142.145 15.5547C142.145 15.9508 143.006 16.3289 144.02 16.3111C145.04 16.2906 145.895 15.9763 145.895 15.5547Z" fill="#8E97FD"/>
<path d="M167.289 36.0669C169.703 36.0669 169.703 34.5543 167.289 34.5543C164.875 34.5543 164.875 36.0669 167.289 36.0669Z" fill="#E9F2DE"/>
</g>
</svg>
