<svg width="320" height="150" viewBox="0 0 320 150" fill="none" xmlns="http://www.w3.org/2000/svg">
<path d="M0 12C0 5.37258 5.37258 0 12 0H307C313.627 0 319 5.37258 319 12V150H12C5.37259 150 0 144.627 0 138V12Z" fill="#FFCD4D"/>
<path d="M137.498 58.7223L141.77 58.741C142.742 56.8869 144.536 55.6384 146.586 55.6477C149.632 55.6663 152.118 58.4242 152.225 61.8436L145.195 61.8063L140.997 61.7877L134.707 61.7597C134.756 60.0733 135.983 58.7223 137.498 58.7223Z" fill="#F7F9ED"/>
<path d="M180.215 13.8817C179.721 9.3536 176.313 5.84104 172.181 5.84104C170.172 5.84104 168.336 6.67958 166.92 8.0492C164.706 3.2695 160.285 0.00849915 155.181 0.00849915C149.731 0.00849915 145.047 3.73536 143.014 9.06477C142.717 9.00887 142.413 8.9716 142.108 8.9716C139.498 8.9716 137.333 11.0866 136.864 13.8817H180.215V13.8817Z" fill="#F7F9ED"/>
<path d="M199.94 39.4863C197.602 42.561 192.654 42.0672 192.654 42.0672C192.654 42.0672 191.485 36.598 193.823 33.5234C196.161 30.4487 201.109 30.9425 201.109 30.9425C201.109 30.9425 202.27 36.4117 199.94 39.4863Z" fill="#CC691E"/>
<path d="M181.647 122.129C178.404 123.844 174.065 121.105 174.065 121.105C174.065 121.105 174.979 115.57 178.223 113.856C181.466 112.141 185.805 114.881 185.805 114.881C185.805 114.881 184.891 120.415 181.647 122.129Z" fill="#FE9A4F"/>
<path d="M140.051 127.717L280.165 126.107L247.679 55.7175C247.109 54.4865 246.021 53.6041 244.796 53.5818C244.101 53.567 243.394 53.7969 242.778 54.2937L235.833 59.8703C234.922 60.5971 233.736 60.6935 232.746 60.115L227.629 57.1265C226.476 56.4517 225.087 56.5407 224.012 57.3638L140.058 121.984V127.717H140.051Z" fill="#F2D88A"/>
<path d="M249.336 65.4025C243.898 65.4025 239.003 68.0573 235.616 72.2842C232.53 75.7103 230.616 80.4786 230.616 85.7586C230.616 86.8932 230.708 88.0055 230.879 89.0808C227.301 90.8309 224.693 94.6277 224.182 99.1662C223.455 98.9956 222.701 98.9066 221.928 98.9066C219.098 98.9066 216.516 100.101 214.537 102.058C213.181 98.6026 210.128 96.1925 206.576 96.1925C204.394 96.1925 202.409 97.1046 200.876 98.6026C199.703 94.7242 196.46 91.9284 192.633 91.9284C189.96 91.9284 187.568 93.2929 185.969 95.4361C184.2 92.6033 181.298 90.7493 178.002 90.7493C177.648 90.7493 177.294 90.7716 176.947 90.8161C174.11 84.268 168.167 79.7593 161.293 79.7593C157.808 79.7593 154.558 80.9235 151.832 82.9258C151.314 82.2139 150.764 81.5465 150.174 80.9161C148.379 78.8842 146.184 77.3047 143.727 76.3555C141.637 75.473 139.376 74.9836 137.017 74.9836C126.442 74.9836 117.865 84.6907 117.865 96.6597C117.865 108.629 126.442 118.336 137.017 118.336C141.578 118.336 145.765 116.526 149.054 113.516C152.199 117.031 156.517 119.211 161.293 119.211C166.653 119.211 171.449 116.467 174.647 112.158C175.695 112.596 176.822 112.841 178.002 112.841C181.298 112.841 184.207 110.987 185.969 108.154C187.568 110.297 189.96 111.662 192.633 111.662C194.815 111.662 196.8 110.749 198.333 109.252C199.506 113.13 202.75 115.926 206.576 115.926C208.182 115.926 209.689 115.421 210.979 114.561C212.139 120.197 216.601 124.402 221.935 124.402C227.668 124.402 232.392 119.545 233.093 113.271C233.821 113.441 234.574 113.53 235.347 113.53C239.632 113.53 243.354 110.816 245.254 106.819C246.571 107.153 247.934 107.338 249.343 107.338C259.571 107.338 267.866 97.95 267.866 86.3741C267.86 74.7907 259.564 65.4025 249.336 65.4025Z" fill="#FE9A4F"/>
<path d="M249.336 65.4025C243.898 65.4025 239.003 68.0573 235.616 72.2842C232.53 75.7103 230.616 80.4786 230.616 85.7586C230.616 86.8932 230.708 88.0055 230.879 89.0808C227.301 90.8309 224.693 94.6277 224.182 99.1662C223.455 98.9956 222.701 98.9066 221.928 98.9066C219.098 98.9066 216.516 100.101 214.537 102.058C213.181 98.6026 210.128 96.1925 206.576 96.1925C204.394 96.1925 202.409 97.1046 200.876 98.6026C199.703 94.7242 196.46 91.9284 192.633 91.9284C189.96 91.9284 187.568 93.2929 185.969 95.4361C184.2 92.6033 181.298 90.7493 178.002 90.7493C177.648 90.7493 177.294 90.7716 176.947 90.8161C174.11 84.268 168.167 79.7593 161.293 79.7593C157.808 79.7593 154.558 80.9235 151.832 82.9258C151.314 82.2139 150.764 81.5465 150.174 80.9161C148.379 78.8842 146.184 77.3047 143.727 76.3555C141.637 75.473 139.376 74.9836 137.017 74.9836C126.442 74.9836 117.865 84.6907 117.865 96.6597C117.865 108.629 126.442 118.336 137.017 118.336C141.578 118.336 145.765 116.526 149.054 113.516C152.199 117.031 156.517 119.211 161.293 119.211C166.653 119.211 171.449 116.467 174.647 112.158C175.695 112.596 176.822 112.841 178.002 112.841C181.298 112.841 184.207 110.987 185.969 108.154C187.568 110.297 189.96 111.662 192.633 111.662C194.815 111.662 196.8 110.749 198.333 109.252C199.506 113.13 202.75 115.926 206.576 115.926C208.182 115.926 209.689 115.421 210.979 114.561C212.139 120.197 216.601 124.402 221.935 124.402C227.668 124.402 232.392 119.545 233.093 113.271C233.821 113.441 234.574 113.53 235.347 113.53C239.632 113.53 243.354 110.816 245.254 106.819C246.571 107.153 247.934 107.338 249.343 107.338C259.571 107.338 267.866 97.95 267.866 86.3741C267.86 74.7907 259.564 65.4025 249.336 65.4025Z" fill="url(#paint0_linear_130_4224)"/>
<path d="M298.94 129.874L297.617 56.9955H290.069L289.761 73.8248L286.858 72.4975L274.998 61.235L269.868 65.1833L282.54 77.2187L289.643 80.4558L288.745 129.874H298.94Z" fill="#9E4927"/>
<path opacity="0.61" d="M298.94 129.874L297.617 56.9955H290.069L289.761 73.8248L286.858 72.4975L274.998 61.235L269.868 65.1833L282.54 77.2187L289.643 80.4558L288.745 129.874H298.94Z" fill="url(#paint1_linear_130_4224)"/>
<path d="M312.137 40.1268C310.197 39.7011 308.218 39.7235 306.43 40.1044C307.511 39.6451 308.363 38.9227 308.749 38.0042C309.588 36.016 307.95 33.8935 305.086 33.2662C304.589 33.1598 304.091 33.1038 303.593 33.0926C304.503 32.3141 305.218 31.3957 305.657 30.3652C307.439 26.148 303.966 21.6509 297.899 20.3236C294.007 19.4667 289.997 20.1331 287.146 21.8301C286.498 19.3939 283.982 17.2713 280.365 16.476C275.477 15.4008 270.366 17.1537 268.59 20.4076C265.956 17.7417 261.645 16 256.757 16C248.73 16 242.217 20.6932 242.217 26.4785C242.217 27.2009 242.316 27.9066 242.512 28.5842C242.303 28.573 242.1 28.5618 241.89 28.5618C235.875 28.5618 231 32.0789 231 36.4137C231 39.4715 233.431 42.1093 236.963 43.4086C233.378 45.0552 231 47.9394 231 51.2325C231 56.3569 236.766 60.5124 243.875 60.5124C245.612 60.5124 247.269 60.2604 248.783 59.8124C248.632 60.1988 248.54 60.602 248.54 61.0221C248.54 63.4415 251.26 65.4016 254.614 65.4016C256.161 65.4016 257.569 64.9816 258.644 64.2928C257.452 65.5529 256.75 67.0762 256.75 68.7171C256.75 73.0519 261.625 76.569 267.64 76.569C273.655 76.569 278.53 73.0519 278.53 68.7171C278.53 68.0675 278.406 67.4402 278.203 66.8354C280.987 66.5273 283.425 65.4688 285.096 63.9399C286.878 64.8528 289.053 65.4016 291.405 65.4016C297.42 65.4016 302.295 61.8846 302.295 57.5498C302.295 56.5977 302.046 55.6904 301.614 54.8448C302.839 54.2119 303.848 53.3719 304.53 52.3638C305.191 52.6438 305.906 52.879 306.672 53.047C311.803 54.1727 317.182 52.1958 318.689 48.6283C320.209 45.0552 317.274 41.2525 312.137 40.1268Z" fill="#CC691E"/>
<path d="M312.137 40.1268C310.197 39.7011 308.218 39.7235 306.43 40.1044C307.511 39.6451 308.363 38.9227 308.749 38.0042C309.588 36.016 307.95 33.8935 305.086 33.2662C304.589 33.1598 304.091 33.1038 303.593 33.0926C304.503 32.3141 305.218 31.3957 305.657 30.3652C307.439 26.148 303.966 21.6509 297.899 20.3236C294.007 19.4667 289.997 20.1331 287.146 21.8301C286.498 19.3939 283.982 17.2713 280.365 16.476C275.477 15.4008 270.366 17.1537 268.59 20.4076C265.956 17.7417 261.645 16 256.757 16C248.73 16 242.217 20.6932 242.217 26.4785C242.217 27.2009 242.316 27.9066 242.512 28.5842C242.303 28.573 242.1 28.5618 241.89 28.5618C235.875 28.5618 231 32.0789 231 36.4137C231 39.4715 233.431 42.1093 236.963 43.4086C233.378 45.0552 231 47.9394 231 51.2325C231 56.3569 236.766 60.5124 243.875 60.5124C245.612 60.5124 247.269 60.2604 248.783 59.8124C248.632 60.1988 248.54 60.602 248.54 61.0221C248.54 63.4415 251.26 65.4016 254.614 65.4016C256.161 65.4016 257.569 64.9816 258.644 64.2928C257.452 65.5529 256.75 67.0762 256.75 68.7171C256.75 73.0519 261.625 76.569 267.64 76.569C273.655 76.569 278.53 73.0519 278.53 68.7171C278.53 68.0675 278.406 67.4402 278.203 66.8354C280.987 66.5273 283.425 65.4688 285.096 63.9399C286.878 64.8528 289.053 65.4016 291.405 65.4016C297.42 65.4016 302.295 61.8846 302.295 57.5498C302.295 56.5977 302.046 55.6904 301.614 54.8448C302.839 54.2119 303.848 53.3719 304.53 52.3638C305.191 52.6438 305.906 52.879 306.672 53.047C311.803 54.1727 317.182 52.1958 318.689 48.6283C320.209 45.0552 317.274 41.2525 312.137 40.1268Z" fill="url(#paint2_linear_130_4224)"/>
<path d="M156.379 74.9763L150.279 95.8589L146.25 82.0509L140.713 111.076L165.572 106.441L156.379 74.9763Z" fill="#CC691E"/>
<path d="M227.688 99.2627L224.326 110.765L218.2 89.7855L209.531 119.471H235.124L227.688 99.2627Z" fill="#CC691E"/>
<path d="M170.585 95.3176C169.995 95.3176 169.405 95.325 168.816 95.3398C156.733 95.6661 144.946 99.6335 134.456 106.411L67 150.008H247.292V147.487L222.839 119.812C208.981 104.127 190.183 95.3176 170.585 95.3176Z" fill="#FEC956"/>
<path d="M170.585 95.3176C169.995 95.3176 169.405 95.325 168.816 95.3398C156.733 95.6661 144.946 99.6335 134.456 106.411L67 150.008H247.292V147.487L222.839 119.812C208.981 104.127 190.183 95.3176 170.585 95.3176Z" fill="url(#paint3_linear_130_4224)"/>
<path d="M240.491 98.3803C216.555 124.231 175.689 130.461 149.709 131.632C142.796 131.944 135.93 132.997 129.214 134.843L73.9911 150.008H319L269.583 97.9725C266.549 94.7763 262.749 92.6628 258.654 91.899C252.029 90.668 245.346 93.1374 240.491 98.3803Z" fill="#CE4C52"/>
<path d="M240.491 98.3803C216.555 124.231 175.689 130.461 149.709 131.632C142.796 131.944 135.93 132.997 129.214 134.843L73.9911 150.008H319L269.583 97.9725C266.549 94.7763 262.749 92.6628 258.654 91.899C252.029 90.668 245.346 93.1374 240.491 98.3803Z" fill="url(#paint4_linear_130_4224)"/>
<defs>
<linearGradient id="paint0_linear_130_4224" x1="191.742" y1="55.5342" x2="193.607" y2="102.319" gradientUnits="userSpaceOnUse">
<stop offset="0.4372" stop-color="#FFF459" stop-opacity="0.53"/>
<stop offset="0.9596" stop-color="#FFF459" stop-opacity="0"/>
</linearGradient>
<linearGradient id="paint1_linear_130_4224" x1="281.168" y1="45.3304" x2="287.984" y2="102.435" gradientUnits="userSpaceOnUse">
<stop stop-color="#040006"/>
<stop offset="1" stop-color="#040006" stop-opacity="0"/>
</linearGradient>
<linearGradient id="paint2_linear_130_4224" x1="214.541" y1="71.6231" x2="265.94" y2="34.7156" gradientUnits="userSpaceOnUse">
<stop offset="0.4372" stop-color="#FFF459" stop-opacity="0.53"/>
<stop offset="0.9596" stop-color="#FFF459" stop-opacity="0"/>
</linearGradient>
<linearGradient id="paint3_linear_130_4224" x1="154.897" y1="83.1905" x2="156.388" y2="117.124" gradientUnits="userSpaceOnUse">
<stop offset="0.4372" stop-color="#FFE9B1" stop-opacity="0.53"/>
<stop offset="0.9596" stop-color="#FFE9B1" stop-opacity="0"/>
</linearGradient>
<linearGradient id="paint4_linear_130_4224" x1="186.902" y1="98.0619" x2="197.225" y2="141.713" gradientUnits="userSpaceOnUse">
<stop offset="0.4372" stop-color="#FFF459" stop-opacity="0.53"/>
<stop offset="0.9596" stop-color="#FFF459" stop-opacity="0"/>
</linearGradient>
</defs>
</svg>
